<?xml version="1.0" encoding="UTF-8" standalone="no"?>
<!-- Created with Inkscape (http://www.inkscape.org/) -->

<svg
   version="1.1"
   id="svg1"
   width="4206"
   height="960"
   viewBox="0 0 4206 960"
   sodipodi:docname="level1.svg"
   inkscape:version="1.3.2 (091e20e, 2023-11-25, custom)"
   xmlns:inkscape="http://www.inkscape.org/namespaces/inkscape"
   xmlns:sodipodi="http://sodipodi.sourceforge.net/DTD/sodipodi-0.dtd"
   xmlns:xlink="http://www.w3.org/1999/xlink"
   xmlns="http://www.w3.org/2000/svg"
   xmlns:svg="http://www.w3.org/2000/svg">
  <defs
     id="defs1" />
  <sodipodi:namedview
     id="namedview1"
     pagecolor="#505050"
     bordercolor="#eeeeee"
     borderopacity="1"
     inkscape:showpageshadow="0"
     inkscape:pageopacity="0"
     inkscape:pagecheckerboard="0"
     inkscape:deskcolor="#505050"
     inkscape:zoom="0.16761423"
     inkscape:cx="-1061.9623"
     inkscape:cy="68.609926"
     inkscape:window-width="2560"
     inkscape:window-height="1351"
     inkscape:window-x="-9"
     inkscape:window-y="-9"
     inkscape:window-maximized="1"
     inkscape:current-layer="g1" />
  <g
     inkscape:groupmode="layer"
     inkscape:label="Image"
     id="g1">
    <image
       width="4206"
       height="960"
       preserveAspectRatio="none"
       xlink:href="level1.png"
       id="image1" />
    <path
       style="fill:#000000"
       d="m -0.527332,854.5415 283.916152,-0.45979 v -93.96577 l 361.13431,-1.49152 0.55932,96.01661 173.20278,-0.9322 1.11864,-167.23669 342.49033,0.18644 v 168.91465 l 132.9317,-0.9322 V 524.82864 l 120.2538,0.18644 v 328.32087 l 247.4059,1.11864 0.7458,-163.69433 -49.7795,0.37288 -1.678,-26.28804 49.7795,-0.55932 1.678,-138.15206 114.1013,-1.11864 0.3728,138.52494 66.3727,0.37288 -0.3729,24.98296 -66.5591,1.8644 -0.5593,163.88077 211.6094,-0.9322 -0.3729,-501.52364 182.7113,-0.37288 0.7457,354.04959 42.8812,0.55932 0.3729,27.22024 h -43.0676 l -0.7458,121.37245 797.0311,-0.9322 -0.7458,-223.1687 -612.6419,-0.18644 0.3729,-86.32172 661.3027,-0.9322 -0.9322,310.7955 1196.3856,-0.18644 4.661,115.40637 -4293.713546,62.64382 z"
       id="path1" />
  </g>
</svg>
